<?xml version="1.0" standalone="no"?>
<!DOCTYPE svg PUBLIC "-//W3C//DTD SVG 20010904//EN"
 "http://www.w3.org/TR/2001/REC-SVG-20010904/DTD/svg10.dtd">
<svg version="1.0" xmlns="http://www.w3.org/2000/svg"
 width="500.000000pt" height="500.000000pt" viewBox="0 0 500.000000 500.000000"
 preserveAspectRatio="xMidYMid meet">

<g transform="translate(0.000000,500.000000) scale(0.100000,-0.100000)"
fill="#000000" stroke="none">
<path d="M773 4330 c-100 -10 -225 -35 -313 -62 -68 -21 -280 -117 -280 -127
0 -3 53 -16 118 -28 64 -13 153 -33 197 -45 70 -19 76 -22 55 -31 -113 -44
-270 -140 -270 -166 0 -5 27 -19 61 -31 88 -33 224 -122 297 -193 62 -60 152
-183 152 -206 0 -7 -18 -44 -39 -84 -50 -92 -95 -220 -122 -350 -24 -110 -32
-347 -16 -479 l7 -66 -62 -38 c-77 -47 -191 -161 -237 -237 -74 -125 -119
-322 -106 -467 7 -85 38 -222 64 -284 l18 -40 21 69 c20 65 79 182 87 173 2
-2 0 -36 -6 -75 -11 -81 0 -200 27 -279 71 -211 245 -377 484 -465 92 -33 209
-63 218 -55 2 3 -10 22 -28 43 -32 36 -69 106 -70 130 0 7 20 -2 44 -21 66
-50 192 -99 470 -181 326 -96 436 -135 574 -200 140 -67 245 -139 322 -222
l60 -64 60 64 c104 111 271 212 485 292 54 20 219 72 365 116 369 110 457 144
529 204 19 17 31 22 31 13 -1 -25 -37 -94 -70 -131 -18 -21 -30 -40 -28 -43 9
-8 126 22 218 55 238 87 413 255 483 462 27 78 39 206 28 284 -6 38 -8 71 -6
73 8 9 67 -108 87 -173 l21 -69 18 40 c26 62 57 199 64 284 13 145 -32 341
-106 467 -45 76 -158 189 -237 237 l-62 38 7 66 c5 37 8 135 7 217 -1 230 -38
394 -135 592 l-50 103 28 51 c67 125 259 284 414 345 38 15 69 31 69 35 0 25
-173 133 -255 159 -38 13 -39 13 -15 22 40 15 261 66 318 74 28 3 52 10 52 14
0 4 -48 30 -107 58 -423 199 -978 182 -1350 -42 l-88 -53 -94 23 c-214 54
-352 68 -681 68 -330 0 -470 -14 -681 -68 l-94 -24 -60 38 c-127 82 -295 144
-474 175 -107 19 -312 26 -418 15z m487 -224 c272 -64 538 -195 703 -346 32
-29 60 -50 63 -47 7 6 -27 74 -72 145 -19 29 -34 54 -34 57 0 9 79 26 215 46
162 25 518 30 665 10 120 -16 254 -41 269 -50 9 -6 4 -21 -22 -62 -46 -72 -80
-140 -73 -146 3 -3 30 17 61 45 231 211 620 367 945 378 l135 5 -76 -29 c-376
-144 -764 -464 -993 -819 -25 -39 -46 -74 -46 -77 0 -3 22 10 49 29 53 38 143
78 201 90 l35 6 -35 -27 c-50 -40 -104 -98 -167 -182 -31 -40 -79 -89 -107
-109 -91 -67 -192 -171 -273 -282 -1 -2 -29 14 -60 36 -73 51 -116 73 -143 73
-27 0 -86 -30 -144 -74 -25 -20 -50 -36 -54 -36 -4 0 -18 17 -32 37 -41 61
-158 179 -230 233 -39 29 -91 81 -123 123 -62 82 -116 141 -167 181 l-35 27
35 -6 c58 -12 148 -52 201 -90 27 -19 49 -32 49 -29 0 3 -21 38 -46 77 -229
355 -617 675 -993 819 l-76 29 135 -5 c95 -3 166 -12 240 -30z m-358 -200
c131 -49 281 -135 444 -256 98 -73 232 -197 199 -184 -11 4 -75 9 -142 12 -93
3 -142 0 -200 -13 -87 -20 -89 -17 52 -60 50 -15 117 -41 150 -58 61 -30 196
-119 214 -140 7 -9 -25 -12 -127 -13 -152 -1 -238 -19 -353 -72 l-64 -30 91
-1 90 -1 -22 -87 c-67 -260 5 -589 183 -841 46 -65 178 -202 195 -202 10 0 9
3 -43 83 -64 97 -167 382 -146 403 3 3 19 -3 35 -15 145 -103 391 -114 573
-26 29 14 54 25 55 25 2 0 -3 -18 -11 -39 -14 -40 -20 -106 -17 -178 2 -46 16
-57 27 -20 4 12 19 37 33 56 l25 33 18 -73 c28 -108 85 -247 152 -367 61 -110
172 -272 187 -272 14 0 108 133 170 241 83 143 180 386 180 449 0 33 14 23 45
-34 16 -30 33 -52 37 -50 15 9 9 173 -7 211 -8 20 -14 38 -12 40 2 2 33 -10
69 -27 172 -81 389 -72 542 21 27 16 51 27 54 24 7 -7 -36 -183 -47 -200 -4
-5 -18 -35 -30 -65 -22 -51 -67 -133 -106 -194 -59 -89 116 74 188 176 179
253 250 580 183 841 l-22 87 90 1 91 1 -60 29 c-110 52 -205 72 -357 73 -158
1 -157 -2 -28 85 94 63 207 114 314 143 38 10 71 20 73 22 3 2 -30 12 -71 21
-79 18 -298 18 -341 0 -30 -12 37 56 125 128 159 129 376 260 518 313 102 39
112 32 45 -30 -32 -30 -56 -57 -53 -60 3 -3 25 1 48 9 53 19 181 39 190 30 4
-4 -2 -11 -13 -18 -61 -33 -182 -179 -209 -251 -2 -6 -21 5 -42 24 -77 70 -94
83 -99 78 -3 -3 11 -39 30 -81 174 -376 212 -857 100 -1244 -26 -92 -99 -263
-124 -294 -16 -20 -17 -17 -13 52 4 71 -11 191 -27 218 -6 9 -24 -17 -58 -82
-144 -274 -350 -462 -835 -764 -270 -168 -394 -256 -480 -340 l-57 -56 -69 65
c-93 88 -209 169 -483 340 -482 299 -687 489 -830 771 -17 32 -35 57 -42 54
-21 -6 -38 -98 -35 -190 2 -48 1 -87 -2 -87 -12 0 -100 201 -128 290 -121 385
-84 883 93 1267 19 42 33 78 30 81 -4 5 -93 -66 -115 -93 -14 -17 -30 -20 -30
-5 0 27 -89 147 -153 206 l-72 66 55 -7 c55 -7 139 -26 173 -40 33 -14 17 13
-39 64 -65 59 -53 66 48 27z m664 -875 c47 -16 90 -33 95 -38 5 -5 4 -32 -2
-63 -16 -74 0 -129 53 -186 54 -59 125 -81 198 -64 28 7 61 21 74 31 13 10 28
19 33 19 4 0 25 -24 46 -52 l38 -52 -23 -18 c-82 -64 -212 -97 -318 -81 -224
35 -365 221 -330 437 13 80 19 96 36 96 7 0 52 -13 100 -29z m1993 -8 c63
-250 -71 -457 -319 -496 -106 -16 -236 17 -318 81 l-23 18 38 52 c21 28 42 52
46 52 5 0 20 -9 34 -19 13 -11 48 -25 76 -31 76 -15 142 6 195 64 53 57 69
112 53 186 -6 31 -7 58 -2 63 11 11 170 66 193 67 12 0 20 -12 27 -37z m-1023
-455 c49 -37 104 -92 125 -124 17 -28 18 -38 8 -90 -24 -128 -149 -494 -169
-494 -20 0 -146 371 -169 494 -10 52 -9 62 8 90 28 45 140 146 161 146 4 0 20
-10 36 -22z m-1822 -433 c76 -185 174 -340 304 -477 78 -82 230 -214 237 -206
2 2 -3 30 -11 63 -18 76 -30 255 -18 255 5 0 18 -16 29 -36 51 -95 224 -226
685 -520 264 -168 440 -312 533 -434 l27 -35 27 35 c91 120 269 265 518 424
395 252 517 338 604 424 48 48 97 101 109 117 l23 30 -6 -100 c-3 -55 -12
-127 -19 -160 -8 -33 -13 -61 -11 -63 7 -8 159 124 237 206 129 137 240 311
308 487 13 33 27 64 32 69 22 26 134 -123 167 -222 31 -90 28 -100 -14 -63
-19 17 -49 38 -66 47 -41 21 -109 45 -109 38 0 -3 14 -44 30 -91 34 -97 60
-239 60 -328 -1 -91 -25 -209 -58 -279 -27 -58 -100 -146 -120 -146 -4 0 -6
29 -4 64 5 72 -13 196 -32 221 -11 15 -18 8 -64 -53 -91 -122 -211 -221 -362
-297 -100 -50 -225 -95 -467 -166 -381 -112 -552 -193 -725 -341 l-58 -50 -57
50 c-167 143 -345 229 -678 326 -525 154 -712 256 -877 478 -46 61 -53 68 -64
53 -19 -25 -37 -149 -32 -221 2 -35 0 -64 -4 -64 -20 0 -93 88 -120 146 -33
70 -57 188 -58 279 0 116 45 321 90 405 11 20 10 21 -12 15 -53 -16 -126 -54
-161 -85 -28 -24 -37 -28 -37 -16 0 29 40 136 66 178 34 53 105 129 117 125 5
-1 24 -39 41 -82z"/>
<path d="M2293 3469 c61 -74 147 -212 174 -279 26 -65 43 -87 43 -57 0 7 21
56 48 108 41 82 70 125 155 235 l18 24 -39 -14 c-57 -20 -93 -40 -146 -81
l-46 -35 -47 36 c-48 36 -119 76 -163 89 l-25 8 28 -34z"/>
</g>
</svg>
